# xmcd
#
# Track frame offsets:
# 150
# 13477
# 28365
# 41942
# 59212
# 73830
# 87930
# 100762
# 120255
# 135115
#
# Disc length: 2347 seconds
#
#
# Revision: 0
# Processed by: cddbd v1.5.2PL0 Copyright (c) Steve Scherf et al.
# Submitted via: FreeRIP 2.951 
#
DISCID=8f09290a
DTITLE=George Hug - Cajun and Tex-Mex
DYEAR=1994
DGENRE=Country
TTITLE0=Gator Gumbo
TTITLE1=Lolita
TTITLE2=Way to Happiness
TTITLE3=Jealous Heart
TTITLE4=Cajun Accordion Man
TTITLE5=Restaurant Hörnli
TTITLE6=The Gnome in my Garden
TTITLE7=Twenty Years
TTITLE8=Enchanted
TTITLE9=Cajun Medley
EXTD=
EXTT0=
EXTT1=
EXTT2=
EXTT3=
EXTT4=
EXTT5=
EXTT6=
EXTT7=
EXTT8=
EXTT9=
PLAYORDER=
